<?xml version="1.0" encoding="utf-8"?>
<!-- Generator: Adobe Illustrator 26.0.2, SVG Export Plug-In . SVG Version: 6.00 Build 0)  -->
<svg version="1.1" id="Layer_1" xmlns="http://www.w3.org/2000/svg" xmlns:xlink="http://www.w3.org/1999/xlink" x="0px" y="0px"
	 viewBox="0 0 600 400" style="enable-background:new 0 0 600 400;" xml:space="preserve">
<style type="text/css">
	.st0{fill:#FFFFFF;}
</style>
<g>
	<polygon class="st0" points="197.37,327.68 184.51,327.68 184.51,334.89 196.02,334.89 196.02,337.05 184.51,337.05 184.51,344.43 
		197.52,344.43 197.52,346.6 182.13,346.6 182.13,325.51 197.37,325.51 	"/>
	<polygon class="st0" points="234.12,325.51 236.43,325.51 236.43,346.6 234.54,346.6 220.93,329.31 220.93,346.6 218.61,346.6 
		218.61,325.51 220.84,325.51 234.12,342.41 	"/>
	<polygon class="st0" points="273.95,327.68 261.08,327.68 261.08,334.89 272.59,334.89 272.59,337.05 261.08,337.05 261.08,344.43 
		274.1,344.43 274.1,346.6 258.71,346.6 258.71,325.51 273.95,325.51 	"/>
	<path class="st0" d="M309.71,346.6l-6.11-8.19h-6.03v8.19h-2.37v-21.08h9.06c4.64,0,7.62,2.5,7.62,6.3c0,3.53-2.4,5.58-5.72,6.18
		l6.48,8.61H309.71z M304.08,327.72h-6.51v8.56h6.47c3.17,0,5.44-1.63,5.44-4.37C309.47,329.28,307.48,327.72,304.08,327.72"/>
	<path class="st0" d="M343.06,346.97c-6.62,0-10.73-4.82-10.73-10.87c0-5.81,4.25-10.94,10.58-10.94c3.55,0,5.75,1.03,7.87,2.8
		l-1.54,1.81c-1.63-1.42-3.44-2.41-6.42-2.41c-4.67,0-8.01,3.95-8.01,8.68c0,5.05,3.22,8.79,8.35,8.79c2.41,0,4.64-0.93,6.09-2.1
		v-5.24h-6.42v-2.14h8.71v8.4C349.57,345.49,346.61,346.97,343.06,346.97"/>
	<rect x="373.39" y="325.51" class="st0" width="2.39" height="21.08"/>
	<path class="st0" d="M417.87,346.6h-2.56l-2.47-5.57h-11.47l-2.5,5.57h-2.44l9.61-21.23h2.23L417.87,346.6z M407.12,328.13
		l-4.81,10.76h9.61L407.12,328.13z"/>
	<path class="st0" d="M123.54,292.92c1.42-3.24,2.13-7,2.13-11.16v-0.25c0-3.68-0.55-6.88-1.64-9.51c-1.09-2.62-2.72-4.93-4.86-6.89
		c-2.16-1.96-4.84-3.66-7.97-5.07c-3.17-1.42-6.83-2.71-10.89-3.85c-3.41-0.97-6.33-1.84-8.65-2.59c-2.3-0.74-4.15-1.55-5.52-2.39
		c-1.4-0.88-2.38-1.89-2.93-3c-0.53-1.08-0.8-2.38-0.8-3.86v-0.25c0-2.3,0.94-4.25,2.79-5.77c1.82-1.51,4.56-2.28,8.15-2.28
		c3.53,0,7.11,0.77,10.63,2.32c3.35,1.47,6.81,3.46,10.27,5.94l8.68-13.4c-3.99-3.32-8.42-5.92-13.18-7.72
		c-4.88-1.85-10.32-2.79-16.17-2.79c-4.09,0-7.87,0.61-11.25,1.81c-3.38,1.21-6.32,2.96-8.74,5.18c-2.41,2.22-4.32,4.91-5.67,8.01
		c-1.34,3.07-2.03,6.58-2.03,10.42v0.25c0,4.16,0.63,7.69,1.86,10.49c1.25,2.79,3.01,5.14,5.25,7c2.27,1.88,5.07,3.49,8.32,4.77
		c3.36,1.32,7.08,2.51,11.07,3.54c3.49,0.93,6.22,1.78,8.35,2.62c2.16,0.82,3.87,1.66,5.1,2.52c1.28,0.87,2.17,1.84,2.63,2.87
		c0.46,0.99,0.69,2.17,0.69,3.47v0.26c0,2.71-1.11,4.87-3.3,6.4c-2.13,1.5-5.13,2.26-8.93,2.26c-4.68,0-9.06-0.97-13.02-2.89
		c-3.76-1.82-7.48-4.28-11.07-7.33L63,294.63c4.68,4.44,9.95,7.78,15.65,9.94c5.84,2.22,11.88,3.35,17.96,3.35
		c4.29,0,8.27-0.59,11.84-1.75c3.53-1.17,6.6-2.87,9.14-5.07C120.13,298.91,122.13,296.15,123.54,292.92"/>
	<path class="st0" d="M177.32,220.42c-24.17,0-43.75,19.59-43.75,43.75s19.59,43.76,43.75,43.76c24.17,0,43.75-19.6,43.75-43.76
		S201.48,220.42,177.32,220.42 M177.32,291.25c-14.96,0-27.09-12.12-27.09-27.09c0-14.96,12.13-27.09,27.09-27.09
		c14.96,0,27.08,12.13,27.08,27.09C204.4,279.14,192.28,291.25,177.32,291.25"/>
	<path class="st0" d="M373.31,220.42v43.74c0,14.97-12.13,27.08-27.1,27.08c-14.95,0-27.08-12.11-27.08-27.08v-43.74h-16.66v43.74
		c0,24.17,19.59,43.76,43.74,43.76c24.17,0,43.76-19.59,43.76-43.76v-43.74H373.31z"/>
	<path class="st0" d="M272.72,291.24c-14.97,0-27.08-12.11-27.08-27.08v-43.74h-16.68v43.74c0,24.17,19.6,43.76,43.76,43.76h21.86
		v-5.87v-10.81H272.72z"/>
	<polygon class="st0" points="463.48,220.42 397.86,220.42 397.86,237.09 422.34,237.09 422.34,307.93 439.01,307.93 439.01,237.09 
		463.48,237.09 	"/>
	<polygon class="st0" points="537,220.42 471.38,220.42 471.38,237.09 495.85,237.09 495.85,307.93 512.52,307.93 512.52,237.09 
		537,237.09 	"/>
	<polygon class="st0" points="285.44,194.7 320.35,194.7 320.35,101.7 285.44,112.17 	"/>
	<path class="st0" d="M328.24,99.34v95.34c23.63-0.61,42.6-19.94,42.6-43.71V86.57L328.24,99.34z"/>
	<polygon class="st0" points="370.83,53.18 285.44,78.91 285.44,104.1 370.83,78.51 	"/>
	<path class="st0" d="M324.45,53.03h-51.54c-18.5,0-34.31,11.5-40.7,27.73L324.45,53.03z"/>
	<path class="st0" d="M271.77,83l-42.57,12.76c-0.01,0.35-0.03,0.68-0.03,1.03v97.91h42.6V83z"/>
</g>
</svg>
